<svg width="613" height="356" viewBox="0 0 613 356" fill="none" xmlns="http://www.w3.org/2000/svg">
<path d="M560.5 0C589.495 0 613 23.5051 613 52.5C613 71.6409 602.756 88.3883 587.452 97.5615C518.254 140.542 479.339 217.543 485.788 298.763C485.928 300.323 486 301.903 486 303.5C486 332.495 462.495 356 433.5 356C404.824 356 381.519 333.01 381.009 304.456V304.457C379.965 247.248 368.739 212.914 336.957 185.192C336.206 184.781 335.387 184.221 334.5 183.5C312.853 165.912 290.212 174.115 279.905 181.938C245.163 210.237 233.077 244.988 231.991 304.457L231.99 304.456C231.48 333.01 208.176 356 179.5 356C150.505 356 127 332.495 127 303.5C127 302.006 127.063 300.527 127.186 299.064C133.757 217.712 94.8085 140.553 25.4893 97.5264C10.2178 88.3455 0 71.6164 0 52.5C0 23.5051 23.5051 0 52.5 0C81.4949 0 105 23.5051 105 52.5C105 54.0968 104.928 55.6768 104.788 57.2373C99.7674 120.47 122.243 181.145 165.098 225.2C173.812 232.149 187.297 237.555 201.888 229.371C239.475 200.755 252.608 166.076 253.97 105.452L254.009 103.541C254.52 74.9885 277.825 52 306.5 52C335.175 52 358.479 74.9886 358.99 103.541H358.991C360.112 164.942 372.96 199.993 410.364 228.8C420.167 234.462 433.648 236.75 447.69 225.412C490.756 181.262 513.318 120.359 508.184 56.9043C508.063 55.4521 508 53.9833 508 52.5C508 23.5051 531.505 0 560.5 0Z" fill="black"/>
</svg>
